# xmcd
#
# Track frame offsets: 
#        182
#        19942
#        39102
#        54027
#        74425
#        90395
#        107597
#        121020
#        133187
#        152402
#        171370
#        186820
#        205010
#        219072
#        237300
#
# Disc length: 3369 seconds
#
# Revision: 10
# Processed by: cddbd v1.5.2PL0 Copyright (c) Steve Scherf et al.
# Submitted via: ExactAudioCopy v1.3
#
DISCID=b70d270f
DTITLE=Nanci Griffith - Flyer
DYEAR=1994
DGENRE=Country
TTITLE0=The Flyer
TTITLE1=Nobody's Angel
TTITLE2=Say It Isn't So
TTITLE3=Southbound Train
TTITLE4=These Days In An Open Book
TTITLE5=Time Of Inconvenience
TTITLE6=Don't Forget About Me
TTITLE7=Always Will
TTITLE8=Going Back To Georgia
TTITLE9=Talk To Me While I'm Listening
TTITLE10=Fragile
TTITLE11=On Grafton Street
TTITLE12=Anything You Need But Me
TTITLE13=Goodnight To A Mother's Dream
TTITLE14=This Heart
EXTD=YEAR: 1991 ID3G: 2
EXTT0=
EXTT1=
EXTT2=
EXTT3=
EXTT4=
EXTT5=
EXTT6=
EXTT7=
EXTT8=
EXTT9=
EXTT10=
EXTT11=
EXTT12=
EXTT13=
EXTT14=
PLAYORDER=
